<svg width="1440" height="800" viewBox="0 0 1440 800" fill="none" xmlns="http://www.w3.org/2000/svg">
<rect width="1440" height="800" fill="#F9F9F9"/>
<path fill-rule="evenodd" clip-rule="evenodd" d="M565.859 343.069C550.838 343.069 545.486 353.536 545.486 363.331V369.325H542.33C540.02 369.325 538.211 371.134 538.211 373.447C538.211 375.757 540.02 377.566 542.33 377.566H545.486V418.912C545.486 421.348 547.394 423.259 549.833 423.259C552.269 423.259 554.18 421.348 554.18 418.912V377.566H563.813C566.123 377.566 567.935 375.757 567.935 373.447C567.935 371.134 566.123 369.325 563.813 369.325H554.18V363.331C554.18 357.847 556.205 351.31 565.859 351.31C568.169 351.31 569.978 349.501 569.978 347.188C569.978 344.878 568.169 343.069 565.859 343.069" fill="#4D4D4D"/>
<path fill-rule="evenodd" clip-rule="evenodd" d="M599.843 367.962C593.366 367.962 587.828 370.617 584.753 375.039V372.765C584.753 370.326 582.845 368.415 580.406 368.415C577.97 368.415 576.059 370.326 576.059 372.765V418.911C576.059 421.35 577.97 423.261 580.406 423.261C582.845 423.261 584.753 421.35 584.753 418.911V393.45C584.753 382.794 590.396 376.431 599.843 376.431C602.177 376.431 604.076 374.529 604.076 372.195C604.076 369.861 602.177 367.962 599.843 367.962" fill="#4D4D4D"/>
<path fill-rule="evenodd" clip-rule="evenodd" d="M649.015 376.224C652.771 381.672 653.176 388.098 653.176 390.609C653.176 393.789 653.176 398.595 647.92 398.595H615.451C615.718 409.167 621.967 415.701 631.894 415.701C638.248 415.701 641.905 413.355 645.106 410.955C645.82 410.478 646.432 410.13 647.578 410.13C649.789 410.13 651.586 411.927 651.586 414.138C651.586 415.668 650.866 416.517 650.128 417.255C649.03 418.35 642.994 423.828 631.894 423.828C615.367 423.828 606.631 414.108 606.631 395.724C606.631 377.937 615.424 367.734 630.757 367.734C638.989 367.734 645.133 370.59 649.015 376.224ZM644.587 390.807C644.38 380.814 639.73 375.747 630.757 375.747C621.796 375.747 616.402 381.087 615.499 390.807H644.587Z" fill="#4D4D4D"/>
<path fill-rule="evenodd" clip-rule="evenodd" d="M682.576 391.324C676.069 389.083 670.453 387.148 670.453 382.312C670.453 376.996 676.345 376.201 679.858 376.201C686.137 376.201 689.287 378.4 691.744 380.767C692.563 381.586 693.535 382 694.633 382C696.844 382 698.641 380.203 698.641 377.992C698.641 376.807 698.14 375.988 697.702 375.406C694.015 370.531 687.679 367.849 679.858 367.849C668.692 367.849 661.756 373.39 661.756 382.312C661.756 393.22 671.326 396.457 679.771 399.313C686.146 401.47 691.651 403.333 691.651 408.001C691.651 414.403 684.547 415.36 680.311 415.36C674.545 415.36 669.988 413.605 666.379 409.999C665.266 408.886 664.132 408.652 663.376 408.652C661.168 408.652 659.371 410.452 659.371 412.66C659.371 413.59 659.62 414.286 660.316 415.261C663.634 419.467 671.101 423.715 680.311 423.715C692.857 423.715 700.345 417.838 700.345 408.001C700.345 397.447 690.904 394.195 682.576 391.324" fill="#4D4D4D"/>
<mask id="mask0_239_6247" style="mask-type:alpha" maskUnits="userSpaceOnUse" x="711" y="340" width="45" height="84">
<path fill-rule="evenodd" clip-rule="evenodd" d="M711.199 340H755.926V423.258H711.199V340V340Z" fill="white"/>
</mask>
<g mask="url(#mask0_239_6247)">
<path fill-rule="evenodd" clip-rule="evenodd" d="M734.302 367.734C728.302 367.734 722.92 370.119 719.896 373.968V344.346C719.896 341.91 717.985 339.999 715.549 339.999C713.11 339.999 711.199 341.91 711.199 344.346V418.911C711.199 421.35 713.11 423.258 715.549 423.258C717.985 423.258 719.896 421.35 719.896 418.911V390.837C719.896 380.748 724.741 375.633 734.302 375.633C743.485 375.633 747.232 379.806 747.232 390.042V418.911C747.232 421.35 749.14 423.258 751.579 423.258C754.018 423.258 755.926 421.35 755.926 418.911V388.563C755.926 374.742 748.651 367.734 734.302 367.734" fill="#4D4D4D"/>
</g>
<path fill-rule="evenodd" clip-rule="evenodd" d="M828.639 368.416C826.773 368.416 825.252 369.478 824.559 371.278L812.112 406.795L801.927 371.308C801.495 369.868 800.061 368.416 797.835 368.416C795.609 368.416 794.178 369.868 793.743 371.317L783.561 406.795L771.105 371.257C770.421 369.478 768.897 368.416 767.034 368.416C764.595 368.416 762.688 370.327 762.688 372.763C762.688 373.33 762.825 373.987 763.071 374.599L779.781 420.418C780.468 422.197 781.989 423.259 783.855 423.259C785.805 423.259 787.536 421.972 788.061 420.133L797.835 386.452L807.609 420.13C808.137 421.972 809.868 423.259 811.818 423.259C813.684 423.259 815.205 422.197 815.895 420.406L832.596 374.62C832.848 373.987 832.986 373.33 832.986 372.763C832.986 370.327 831.078 368.416 828.639 368.416" fill="#4D4D4D"/>
<path fill-rule="evenodd" clip-rule="evenodd" d="M835.771 395.723C835.771 377.675 844.501 367.733 860.35 367.733C876.202 367.733 884.929 377.675 884.929 395.723C884.929 413.846 876.202 423.827 860.35 423.827C844.501 423.827 835.771 413.846 835.771 395.723ZM844.579 395.723C844.579 409.241 849.736 415.814 860.35 415.814C870.964 415.814 876.121 409.241 876.121 395.723C876.121 382.469 870.814 375.746 860.35 375.746C849.886 375.746 844.579 382.469 844.579 395.723Z" fill="#4D4D4D"/>
<path fill-rule="evenodd" clip-rule="evenodd" d="M918.657 367.962C912.18 367.962 906.642 370.617 903.567 375.042V372.765C903.567 370.326 901.659 368.415 899.22 368.415C896.784 368.415 894.873 370.326 894.873 372.765V418.911C894.873 421.35 896.784 423.261 899.22 423.261C901.659 423.261 903.567 421.35 903.567 418.911V393.45C903.567 382.794 909.21 376.431 918.657 376.431C920.991 376.431 922.893 374.529 922.893 372.195C922.893 369.861 920.991 367.962 918.657 367.962" fill="#4D4D4D"/>
<mask id="mask1_239_6247" style="mask-type:alpha" maskUnits="userSpaceOnUse" x="929" y="340" width="44" height="84">
<path fill-rule="evenodd" clip-rule="evenodd" d="M972.563 340H929.996V423.259H972.563V340V340Z" fill="white"/>
</mask>
<g mask="url(#mask1_239_6247)">
<path fill-rule="evenodd" clip-rule="evenodd" d="M951.815 390.727L969.911 376.273C971.426 375.061 971.654 373.555 971.654 372.763C971.654 370.327 969.743 368.416 967.304 368.416C966.563 368.416 965.447 368.53 964.355 369.487L938.69 390.475V344.347C938.69 341.911 936.782 340 934.343 340C931.904 340 929.996 341.911 929.996 344.347V418.912C929.996 421.351 931.904 423.259 934.343 423.259C936.782 423.259 938.69 421.351 938.69 418.912V400.954L944.795 396.049L964.472 421.282L964.478 421.288C965.537 422.614 966.761 423.259 968.213 423.259C970.652 423.259 972.563 421.351 972.563 418.912C972.563 418.222 972.461 417.187 971.615 416.203L951.815 390.727Z" fill="#4D4D4D"/>
</g>
<path fill-rule="evenodd" clip-rule="evenodd" d="M1001.05 391.324C994.545 389.083 988.929 387.148 988.929 382.312C988.929 376.996 994.821 376.201 998.334 376.201C1004.61 376.201 1007.76 378.4 1010.22 380.767C1011.04 381.586 1012.01 382 1013.11 382C1015.32 382 1017.11 380.203 1017.11 377.992C1017.11 376.66 1016.46 375.781 1016.18 375.406C1012.49 370.531 1006.15 367.849 998.334 367.849C987.168 367.849 980.232 373.39 980.232 382.312C980.232 393.22 989.802 396.457 998.244 399.313C1004.62 401.47 1010.12 403.333 1010.12 408.001C1010.12 414.403 1003.02 415.36 998.787 415.36C993.021 415.36 988.461 413.605 984.855 409.999C983.742 408.886 982.608 408.652 981.852 408.652C979.641 408.652 977.844 410.452 977.844 412.66C977.844 413.59 978.096 414.286 978.795 415.261C982.11 419.467 989.577 423.715 998.787 423.715C1011.33 423.715 1018.82 417.838 1018.82 408.001C1018.82 397.447 1009.38 394.195 1001.05 391.324" fill="#4D4D4D"/>
<path fill-rule="evenodd" clip-rule="evenodd" d="M420.562 416.439C422.213 427.527 427.418 437.451 434.984 445.017L452.432 427.566C452.45 409.911 461.609 392.742 477.998 383.277L420.562 416.439Z" fill="#9B65C3"/>
<path fill-rule="evenodd" clip-rule="evenodd" d="M452.432 427.567C443.738 427.576 434.923 425.38 426.85 420.721V420.721C424.618 419.431 422.521 417.997 420.562 416.44C422.213 427.525 427.418 437.449 434.984 445.015L452.432 427.567Z" fill="#9B65C3"/>
<path fill-rule="evenodd" clip-rule="evenodd" d="M452.432 427.568V427.568L434.984 445.016C442.55 452.582 452.474 457.787 463.559 459.437L496.721 401.999C487.256 418.391 470.09 427.55 452.432 427.568" fill="#BE63C5"/>
<path fill-rule="evenodd" clip-rule="evenodd" d="M459.278 453.147C454.619 445.074 452.423 436.263 452.432 427.566L434.984 445.017C442.547 452.58 452.474 457.788 463.559 459.435C462.002 457.476 460.568 455.379 459.278 453.147Z" fill="#BF63C6"/>
<mask id="mask2_239_6247" style="mask-type:alpha" maskUnits="userSpaceOnUse" x="420" y="360" width="99" height="68">
<path fill-rule="evenodd" clip-rule="evenodd" d="M420 427.567V360.493H518.543V427.567H420Z" fill="white"/>
</mask>
<g mask="url(#mask2_239_6247)">
<path fill-rule="evenodd" clip-rule="evenodd" d="M517.465 360.493L478 383.278C461.608 392.743 442.162 392.089 426.859 383.275C422.506 390.802 419.998 399.532 419.998 408.853V408.853C419.998 411.43 420.196 413.962 420.562 416.44C422.524 417.997 424.618 419.431 426.85 420.721H426.853C434.923 425.38 443.737 427.576 452.431 427.567L518.542 361.456C518.203 361.114 517.843 360.793 517.465 360.493" fill="#3278B1"/>
</g>
<path fill-rule="evenodd" clip-rule="evenodd" d="M426.852 420.721C434.925 425.38 443.736 427.576 452.433 427.567C452.451 409.909 461.607 392.743 477.999 383.278L420.564 416.44C422.523 417.997 424.62 419.431 426.852 420.721Z" fill="#3278B2"/>
<path fill-rule="evenodd" clip-rule="evenodd" d="M426.861 383.276C422.505 390.8 420 399.533 420 408.851V408.851C420 411.431 420.195 413.963 420.564 416.438L477.999 383.279C461.607 392.741 442.161 392.087 426.861 383.276" fill="#45A4EC"/>
<path fill-rule="evenodd" clip-rule="evenodd" d="M518.544 361.456C518.202 361.114 517.842 360.793 517.467 360.493C516.969 360.097 516.438 359.743 515.886 359.422C514.008 358.336 511.833 357.706 509.508 357.706H471.147C452.22 357.706 435.705 367.993 426.861 383.275C442.161 392.089 461.607 392.743 477.999 383.278C461.607 392.743 452.451 409.909 452.433 427.567C470.091 427.549 487.257 418.393 496.722 402.001L519.507 362.533C519.207 362.155 518.886 361.798 518.544 361.456" fill="#19BB7D"/>
<path fill-rule="evenodd" clip-rule="evenodd" d="M477.999 383.278L517.464 360.493C516.969 360.097 516.438 359.743 515.886 359.422L426.861 383.275C442.161 392.089 461.607 392.743 477.999 383.278" fill="#07C7FB"/>
<path fill-rule="evenodd" clip-rule="evenodd" d="M509.508 357.705H471.147C452.22 357.705 435.705 367.995 426.861 383.277L515.886 359.421C514.008 358.335 511.833 357.705 509.508 357.705" fill="#59F2F7"/>
<path fill-rule="evenodd" clip-rule="evenodd" d="M496.721 402L519.506 362.535C519.206 362.157 518.885 361.797 518.543 361.455L452.432 427.569C452.423 436.263 454.619 445.077 459.278 453.147V453.147C460.568 455.382 462.002 457.476 463.559 459.435C466.037 459.804 468.569 459.999 471.146 459.999C480.467 459.999 489.197 457.494 496.724 453.138C487.91 437.838 487.256 418.392 496.721 402" fill="#DA3757"/>
<path fill-rule="evenodd" clip-rule="evenodd" d="M452.432 427.568V427.568C452.423 436.262 454.619 445.076 459.278 453.149V453.149C460.568 455.381 462.002 457.478 463.559 459.437L496.721 401.999C487.256 418.391 470.09 427.55 452.432 427.568" fill="#D33C4E"/>
<path fill-rule="evenodd" clip-rule="evenodd" d="M496.721 402L463.559 459.435C466.037 459.804 468.569 459.999 471.146 459.999V459.999C480.467 459.999 489.197 457.494 496.724 453.138C487.91 437.838 487.256 418.392 496.721 402" fill="#EE5A24"/>
<path fill-rule="evenodd" clip-rule="evenodd" d="M520.579 364.114C520.258 363.562 519.904 363.031 519.508 362.533C519.208 362.155 518.887 361.798 518.545 361.456C518.203 361.114 517.846 360.793 517.468 360.493L478 383.278C461.608 392.743 452.452 409.909 452.434 427.567C470.092 427.549 487.258 418.393 496.723 402.001C487.258 418.393 487.912 437.839 496.726 453.139C512.008 444.295 522.295 427.78 522.295 408.853V370.492C522.295 368.167 521.665 365.992 520.579 364.114" fill="#8BDF55"/>
<path fill-rule="evenodd" clip-rule="evenodd" d="M517.466 360.493L478.001 383.278C461.609 392.743 452.453 409.909 452.432 427.567V427.567L518.543 361.456C518.204 361.114 517.844 360.793 517.466 360.493" fill="#25C16F"/>
<path fill-rule="evenodd" clip-rule="evenodd" d="M452.432 427.568C470.09 427.55 487.256 418.391 496.721 401.999L519.506 362.534C519.206 362.156 518.885 361.796 518.543 361.457L452.432 427.568Z" fill="#8BDF55"/>
<path fill-rule="evenodd" clip-rule="evenodd" d="M519.508 362.534L496.723 401.999C487.258 418.391 487.912 437.837 496.726 453.14L520.579 364.115C520.258 363.56 519.904 363.032 519.508 362.534" fill="#FFBB00"/>
<path fill-rule="evenodd" clip-rule="evenodd" d="M496.725 453.139C512.007 444.295 522.297 427.78 522.297 408.853V370.492C522.297 368.167 521.667 365.992 520.578 364.114L496.725 453.139Z" fill="#FFA800"/>
</svg>
