<svg width="1440" height="800" viewBox="0 0 1440 800" fill="none" xmlns="http://www.w3.org/2000/svg">
<rect width="1440" height="800" fill="#F9F9F9"/>
<g clip-path="url(#clip0_239_6331)">
<path d="M1002.41 309.987V378.635L945.435 345.262C928.56 335.309 929.714 329.162 929.714 315.257L988.272 349.653V318.33L1002.41 309.987Z" fill="#99BCE3"/>
<path d="M988.268 349.654L929.711 315.257L986.538 281.885C1003.56 271.931 1008.17 276.176 1020 283.055L961.442 317.452L988.268 332.967V349.654Z" fill="#5892CD"/>
<path d="M961.443 317.307L1020 282.91V349.655C1020 369.561 1014.09 371.464 1002.26 378.49V309.989L975.578 325.65L961.443 317.307Z" fill="#2A5789"/>
<path d="M504.375 445.818C504.087 441.866 499.327 386.099 499.327 386.099C498.75 379.659 498.894 373.365 498.894 373.365H498.606C498.606 373.365 497.452 379.366 495.433 386.099C495.433 386.099 480 440.549 478.125 445.818H466.154C464.567 441.427 448.846 386.099 448.846 386.099C446.971 379.513 445.673 373.365 445.673 373.365H445.385C445.385 373.365 445.673 379.366 445.096 386.099C445.096 386.099 440.192 441.281 439.904 445.818H420L430.817 342.042H454.327L470.192 400.151C471.923 406.445 472.933 411.714 472.933 411.714H473.221C473.221 411.714 474.231 406.445 476.106 400.151L492.981 342.042H516.346L527.308 445.818H504.375Z" fill="#5592D7"/>
<path d="M565.673 447.428C542.452 447.428 530.625 438.646 530.625 421.813C530.625 400.882 551.25 394.589 575.336 392.393V388.587C575.336 380.098 569.712 377.756 561.202 377.756C553.413 377.756 545.625 380.391 540.433 382.733L535.385 369.267C541.01 366.778 551.394 363.119 565.529 363.119C583.702 363.119 597.115 370.877 597.115 392.832V441.427C590.481 444.94 579.519 447.428 565.673 447.428ZM575.336 403.224C561.346 404.542 552.26 407.908 552.26 420.935C552.26 430.449 557.596 434.548 566.827 434.548C570.288 434.548 573.173 433.962 575.336 432.937V403.224Z" fill="#5592D7"/>
<path d="M617.164 352.141C610.385 352.141 604.76 347.31 604.76 341.163C604.76 335.162 610.241 330.185 617.164 330.185C624.087 330.185 629.567 335.162 629.567 341.163C629.423 347.31 623.942 352.141 617.164 352.141ZM605.481 364.582H628.702V445.817H605.481V364.582Z" fill="#5592D7"/>
<path d="M675.434 447.429C651.203 447.429 636.059 432.938 636.059 405.713C636.059 379.66 650.626 363.559 671.251 363.559C676.01 363.559 680.049 364.145 682.933 364.876V327.406H706.01V441.428C698.799 445.233 689.28 447.429 675.434 447.429ZM682.933 377.61C681.059 377.025 678.895 376.732 676.587 376.732C663.751 376.732 658.847 387.856 658.847 404.689C658.847 422.4 664.039 432.499 675.866 432.499C679.04 432.499 681.347 432.206 682.933 431.328V377.61Z" fill="#5592D7"/>
<path d="M742.932 447.427C730.24 447.427 722.019 445.232 716.105 441.28L721.586 424.155C724.904 426.35 730.961 428.985 738.029 428.985C746.538 428.985 751.73 424.008 751.73 416.543C751.73 409.957 747.836 405.858 737.452 401.175C721.586 394.003 717.115 382.585 717.115 372.486C717.115 354.922 729.663 340.431 749.567 340.431C760.528 340.431 768.605 343.212 773.509 346.432L768.461 361.362C764.855 359.166 759.375 356.825 753.173 356.825C745.096 356.825 740.769 361.362 740.769 368.68C740.769 376.292 745.961 379.951 754.615 383.903C774.375 392.978 777.259 403.955 777.259 414.494C777.259 433.522 763.125 447.427 742.932 447.427Z" fill="#5592D7"/>
<path d="M816.491 447.428C793.27 447.428 781.443 438.646 781.443 421.813C781.443 400.882 802.068 394.589 826.155 392.393V388.587C826.155 380.098 820.53 377.756 812.02 377.756C804.232 377.756 796.443 380.391 791.251 382.733L786.203 369.267C791.828 366.778 802.213 363.119 816.347 363.119C834.52 363.119 847.934 370.877 847.934 392.832V441.427C841.299 444.94 830.338 447.428 816.491 447.428ZM826.155 403.224C812.165 404.542 803.078 407.908 803.078 420.935C803.078 430.449 808.415 434.548 817.645 434.548C821.107 434.548 823.992 433.962 826.155 432.937V403.224Z" fill="#5592D7"/>
<path d="M883.845 379.805V445.818H860.624V379.805H851.826V364.583H860.624V356.24C860.624 335.894 874.47 325.209 896.105 327.551V342.481C888.317 342.188 883.701 344.823 883.701 354.19V364.436H896.105V379.659H883.845V379.805Z" fill="#5592D7"/>
<path d="M918.46 413.472C920.046 425.328 926.104 431.329 937.787 431.329C947.162 431.329 954.229 429.28 958.556 426.938L963.748 441.575C957.546 444.795 948.604 447.43 935.046 447.43C910.527 447.43 896.393 431.036 896.393 404.983C896.393 379.514 909.518 362.975 932.594 362.975C955.815 362.975 967.498 378.929 966.488 406.446L918.46 413.472ZM931.729 376.88C922.21 376.88 916.296 385.223 917.018 401.909L944.998 397.664C944.998 383.174 940.238 376.88 931.729 376.88Z" fill="#5592D7"/>
</g>
<defs>
<clipPath id="clip0_239_6331">
<rect width="600" height="171.429" fill="white" transform="translate(420 276)"/>
</clipPath>
</defs>
</svg>
