<svg width="48" height="48" viewBox="0 0 48 48" fill="none" xmlns="http://www.w3.org/2000/svg">
<path fill-rule="evenodd" clip-rule="evenodd" d="M17.318 14.8227C17.2827 13.2204 16.1369 12 14.2763 12C12.4156 12 11.1992 13.2204 11.1992 14.8227C11.1992 16.3918 12.3797 17.6473 14.2056 17.6473H14.2404C16.1369 17.6473 17.318 16.3918 17.318 14.8227ZM16.9598 19.8778H11.5208V36.2196H16.9598V19.8778ZM30.3124 19.4941C33.8914 19.4941 36.5746 21.8303 36.5746 26.8497L36.5744 36.2196H31.1357V27.4767C31.1357 25.2807 30.3486 23.7822 28.3797 23.7822C26.8771 23.7822 25.9821 24.7924 25.589 25.7682C25.4452 26.1178 25.4099 26.605 25.4099 27.0934V36.22H19.9703C19.9703 36.22 20.042 21.4117 19.9703 19.8783H25.4099V22.1929C26.1318 21.0802 27.4246 19.4941 30.3124 19.4941Z" fill="white"/>
</svg>
