<svg width="48" height="48" viewBox="0 0 48 48" fill="none" xmlns="http://www.w3.org/2000/svg">
<path fill-rule="evenodd" clip-rule="evenodd" d="M12 17.0266C12 17.0266 22.049 23 23.9995 23C26.0439 23 35.984 17.1407 35.984 17.1407L36 16.0938C36 14.938 35.1052 14 33.9996 14H13.9994C12.8948 14 12 14.938 12 16.0938V17.0266ZM35.984 20C35.984 20 26.1377 25.3469 23.9995 25.3469C22.049 25.3469 12.015 20 12.016 20L12 32C12 33.104 12.8958 34 13.9994 34H33.9996C35.1052 34 36 33.104 36 32L35.984 20Z" fill="white"/>
</svg>
