<svg width="48" height="48" viewBox="0 0 48 48" fill="none" xmlns="http://www.w3.org/2000/svg">
<path d="M24.0523 18.9164L24.1195 20.041L22.9995 19.9033C18.9228 19.3754 15.3614 17.5853 12.3375 14.5788L10.8591 13.087L10.4783 14.1886C9.67198 16.6443 10.1872 19.2377 11.8671 20.9819C12.7631 21.9459 12.5615 22.0836 11.0159 21.5098C10.4783 21.3262 10.008 21.1885 9.96317 21.2574C9.80637 21.418 10.344 23.5065 10.7695 24.3327C11.3519 25.4802 12.5391 26.6048 13.8382 27.2704L14.9358 27.7982L13.6366 27.8212C12.3823 27.8212 12.3375 27.8441 12.4719 28.3261C12.9199 29.8179 14.6894 31.4015 16.6605 32.09L18.0493 32.5719L16.8397 33.3064C15.0478 34.3621 12.9423 34.9588 10.8367 35.0047C9.82877 35.0276 9 35.1194 9 35.1883C9 35.4178 11.7327 36.703 13.323 37.2079C18.0941 38.6997 23.7611 38.0571 28.0169 35.5096C31.0408 33.6965 34.0647 30.0933 35.4759 26.6048C36.2374 24.7458 36.999 21.3492 36.999 19.7197C36.999 18.664 37.0662 18.5262 38.3206 17.264C39.0597 16.5296 39.7541 15.7263 39.8885 15.4968C40.1125 15.0607 40.0901 15.0607 38.9477 15.4509C37.0438 16.1394 36.775 16.0476 37.7158 15.0148C38.4102 14.2804 39.2389 12.9493 39.2389 12.5591C39.2389 12.4903 38.9029 12.605 38.5222 12.8116C38.119 13.0411 37.223 13.3853 36.551 13.5919L35.3415 13.9821L34.2439 13.2247C33.6391 12.8116 32.788 12.3526 32.34 12.2149C31.1976 11.8936 29.4505 11.9395 28.4201 12.3067C25.6202 13.3394 23.8507 16.0017 24.0523 18.9164Z" fill="white"/>
</svg>
